<svg width="220" height="65" viewBox="0 0 220 65" fill="none" xmlns="http://www.w3.org/2000/svg">
<path d="M70.1711 48.6859L64.1587 31.5285H48.9077L42.8953 48.6859H35.9297L52.8671 0H60.1993L77.1367 48.6859H70.1711ZM56.5332 9.45855L50.9607 25.3694H62.0323L56.5332 9.45855Z" fill="#5470EB"/>
<path d="M97.0654 22.9498C96.9188 22.0699 96.601 21.239 96.1122 20.4569C95.1835 18.8438 93.3504 18.0372 90.6131 18.0372C89.1466 18.0372 88.0223 18.2083 87.2402 18.5505C86.2137 18.9415 85.4316 19.5037 84.8939 20.2369C84.4051 20.9701 84.1607 21.7767 84.1607 22.6565C84.1607 23.7319 84.5518 24.7095 85.3339 25.5894C86.1649 26.5182 87.5091 27.007 89.3666 27.0558C92.6416 27.2025 95.2812 27.5935 97.2854 28.229C99.3384 28.8645 100.903 29.9643 101.978 31.5285C103.102 33.0927 103.664 35.2924 103.664 38.1275C103.664 41.0115 102.565 43.5044 100.365 45.6063C99.2895 46.6328 98.0186 47.4638 96.5521 48.0993C95.1346 48.7347 93.6437 49.0525 92.0795 49.0525H90.9797C87.0692 49.0525 83.9163 47.9282 81.5211 45.6797C79.5659 43.871 78.3438 41.3292 77.855 38.0542H84.3807C84.6251 39.2273 85.1139 40.1805 85.8471 40.9137C86.9714 41.9891 88.5356 42.5268 90.5397 42.5268C91.0774 42.5268 91.4685 42.5024 91.7129 42.4535C93.4237 42.3557 94.768 41.8913 95.7456 41.0604C96.7232 40.1805 97.212 39.1051 97.212 37.8342C97.212 36.0745 96.6744 34.9257 95.599 34.3881C94.5236 33.8504 92.4461 33.5815 89.3666 33.5815C85.505 33.5815 82.5476 32.3595 80.4946 29.9154C78.8326 28.0579 78.0017 25.7116 78.0017 22.8765C78.0017 22.241 78.0261 21.7522 78.075 21.41C78.466 18.2328 79.7614 15.8131 81.9611 14.1512C84.2096 12.4403 87.1669 11.5849 90.833 11.5849C93.5215 11.5849 95.8678 12.1715 97.8719 13.3446C99.2895 14.2245 100.512 15.4465 101.538 17.0107C102.516 18.5749 103.151 20.5302 103.444 22.8765L103.298 22.9498H97.0654Z" fill="#5470EB"/>
<path d="M127.321 49.3458C124.535 49.3458 122.213 48.9058 120.355 48.026C118.498 47.0972 116.812 45.6552 115.296 43.7V64.3035H108.771V12.9047H115.296V18.0372C116.812 16.1797 118.62 14.6889 120.722 13.5646C122.824 12.4403 125.024 11.8782 127.321 11.8782C129.814 11.8782 132.185 12.367 134.433 13.3446C136.731 14.2734 138.71 15.6176 140.372 17.3773C142.083 19.1371 143.403 21.1656 144.332 23.4631C145.309 25.7116 145.798 28.1068 145.798 30.6486C145.798 33.1905 145.309 35.5857 144.332 37.8342C143.403 40.0827 142.083 42.0869 140.372 43.8466C138.71 45.5575 136.731 46.9017 134.433 47.8793C132.185 48.8569 129.814 49.3458 127.321 49.3458ZM127.321 18.5505C125.708 18.5505 124.168 18.8682 122.702 19.5037C121.235 20.0902 119.964 20.9457 118.889 22.0699C117.814 23.1942 116.958 24.514 116.323 26.0293C115.687 27.4958 115.37 29.0355 115.37 30.6486C115.37 32.2617 115.687 33.8015 116.323 35.2679C116.958 36.7344 117.814 38.0297 118.889 39.154C119.964 40.2783 121.235 41.1581 122.702 41.7936C124.168 42.429 125.708 42.7468 127.321 42.7468C128.934 42.7468 130.474 42.429 131.94 41.7936C133.407 41.1581 134.678 40.2783 135.753 39.154C136.828 38.0297 137.659 36.7344 138.246 35.2679C138.882 33.8015 139.199 32.2617 139.199 30.6486C139.199 29.0355 138.882 27.4958 138.246 26.0293C137.659 24.514 136.828 23.1942 135.753 22.0699C134.678 20.9457 133.407 20.0902 131.94 19.5037C130.474 18.8682 128.934 18.5505 127.321 18.5505Z" fill="#5470EB"/>
<path d="M152.851 6.74563C151.923 6.74563 151.116 6.4279 150.432 5.79244C149.796 5.1081 149.479 4.30156 149.479 3.37282C149.479 2.44407 149.796 1.66197 150.432 1.02651C151.116 0.34217 151.923 0 152.851 0C153.78 0 154.562 0.34217 155.198 1.02651C155.882 1.66197 156.224 2.44407 156.224 3.37282C156.224 4.30156 155.882 5.1081 155.198 5.79244C154.562 6.4279 153.78 6.74563 152.851 6.74563ZM149.845 48.6859V12.0248H156.004V48.6859H149.845Z" fill="#5470EB"/>
<path d="M178.469 19.0637C177.296 18.526 176.245 18.2572 175.316 18.2572C173.361 18.2572 171.748 18.9415 170.477 20.3102C169.108 21.7767 168.424 23.4631 168.424 25.3694V48.6859H162.118V25.3694C162.118 22.7298 162.778 20.3102 164.098 18.1106C165.467 15.9109 167.324 14.2 169.67 12.978C171.43 12.147 173.312 11.7315 175.316 11.7315C176.929 11.7315 178.469 12.0248 179.935 12.6114C181.402 13.198 182.942 14.1512 184.555 15.471L178.469 19.0637Z" fill="#5470EB"/>
<path d="M189.441 33.1416C189.441 34.3147 189.856 35.5368 190.687 36.8077C191.567 38.0786 192.569 39.154 193.694 40.0339C195.747 41.6469 198.142 42.4535 200.879 42.4535C205.23 42.4535 208.774 40.3516 211.511 36.1478L217.083 39.4473C215.177 42.5268 212.831 44.8976 210.044 46.5595C207.258 48.2215 204.203 49.0525 200.879 49.0525C198.386 49.0525 196.015 48.5881 193.767 47.6594C191.518 46.6817 189.539 45.3375 187.828 43.6266C186.117 41.9158 184.773 39.9361 183.795 37.6875C182.866 35.439 182.402 33.0683 182.402 30.5753C182.402 28.0824 182.866 25.7116 183.795 23.4631C184.773 21.1656 186.117 19.1615 187.828 17.4507C189.49 15.7398 191.445 14.42 193.694 13.4913C195.991 12.5625 198.386 12.0981 200.879 12.0981C203.372 12.0981 205.743 12.5625 207.991 13.4913C210.289 14.42 212.269 15.7398 213.93 17.4507C217.548 21.1656 219.356 25.4672 219.356 30.3553C219.356 31.2352 219.283 32.164 219.136 33.1416H189.441ZM200.879 18.1106C198.875 18.1106 196.993 18.5505 195.233 19.4304C193.474 20.3102 192.056 21.4834 190.981 22.9498C189.954 24.3674 189.441 25.8827 189.441 27.4958H212.317C212.317 25.8827 211.78 24.3674 210.704 22.9498C209.678 21.4834 208.285 20.3102 206.525 19.4304C204.765 18.5505 202.883 18.1106 200.879 18.1106Z" fill="#5470EB"/>
<path d="M36.978 31.5285L30.9656 48.6859H24L40.9374 0H48.2696L36.978 31.5285Z" fill="#5C77EC"/>
<path d="M24.978 31.5285L18.9656 48.6859H12L28.9374 0H36.2696L24.978 31.5285Z" fill="#7A91F2"/>
<path d="M12.978 31.5285L6.9656 48.6859H0L16.9374 0H24.2696L12.978 31.5285Z" fill="#93A9F8"/>
</svg>
